<?xml version="1.0" encoding="utf-8"?>
<!-- Generator: Adobe Illustrator 17.0.0, SVG Export Plug-In . SVG Version: 6.00 Build 0)  -->
<!DOCTYPE svg PUBLIC "-//W3C//DTD SVG 1.1//EN" "http://www.w3.org/Graphics/SVG/1.1/DTD/svg11.dtd">
<svg version="1.1" id="Layer_1" xmlns="http://www.w3.org/2000/svg" xmlns:xlink="http://www.w3.org/1999/xlink" x="0px" y="0px"
	 width="100px" height="100px" viewBox="0 0 100 100" enable-background="new 0 0 100 100" xml:space="preserve">
<g>
	<path fill="#FFFFFF" d="M84.941,10.295H15.059c-0.877,0-1.588,0.711-1.588,1.588v52.411c0,0.877,0.711,1.588,1.588,1.588h69.882
		c0.877,0,1.588-0.711,1.588-1.588V11.883C86.529,11.006,85.818,10.295,84.941,10.295z M83.353,62.706H16.647V26.177h66.705V62.706z
		 M83.353,23H16.647v-9.529h66.705V23z"/>
	<path fill="#FFFFFF" d="M19.824,16.647H23v3.176h-3.176V16.647z"/>
	<path fill="#FFFFFF" d="M26.177,16.647h3.176v3.176h-3.176V16.647z"/>
	<path fill="#FFFFFF" d="M32.53,16.647h3.176v3.176H32.53V16.647z"/>
	<path fill="#FFFFFF" d="M21.412,59.529H50c0.877,0,1.588-0.711,1.588-1.588v-27c0-0.877-0.711-1.588-1.588-1.588H21.412
		c-0.877,0-1.588,0.711-1.588,1.588v27C19.824,58.818,20.535,59.529,21.412,59.529z M23,32.53h25.411v23.823H23V32.53z"/>
	<path fill="#FFFFFF" d="M41.065,36.523c-0.28-0.504-0.811-0.817-1.388-0.817h-7.941c-0.577,0-1.108,0.313-1.388,0.817l-3.971,7.147
		c-0.267,0.48-0.267,1.063,0,1.543l3.971,7.147c0.28,0.504,0.811,0.817,1.388,0.817h7.941c0.577,0,1.108-0.313,1.388-0.817
		l3.971-7.147c0.267-0.48,0.267-1.063,0-1.543L41.065,36.523z M38.742,50H32.67l-3.088-5.559l3.088-5.559h6.072l3.088,5.559
		L38.742,50z"/>
	<path fill="#FFFFFF" d="M65.882,32.53h12.706v3.176H65.882V32.53z"/>
	<path fill="#FFFFFF" d="M57.941,38.882h20.647v3.176H57.941V38.882z"/>
	<path fill="#FFFFFF" d="M70.012,49.365l1.028-1.211c0.568-0.668,0.486-1.671-0.182-2.239c-0.275-0.233-0.621-0.366-0.981-0.377
		l-10.165-0.303c-0.484-0.024-0.951,0.184-1.258,0.559c-0.312,0.368-0.44,0.857-0.349,1.33l1.936,9.983
		c0.167,0.861,1.001,1.424,1.862,1.256c0.354-0.069,0.674-0.256,0.907-0.531l1.029-1.21l4.842,4.117
		c0.287,0.244,0.652,0.377,1.028,0.377c0.043,0,0.085-0.002,0.129-0.005c0.42-0.034,0.809-0.234,1.082-0.554l4.114-4.84
		c0.568-0.668,0.486-1.67-0.182-2.238L70.012,49.365z M69.528,57.291l-4.841-4.115c-0.632-0.537-1.57-0.497-2.154,0.091
		l-0.931-4.796l4.884,0.145c-0.485,0.672-0.373,1.604,0.259,2.141l4.84,4.115L69.528,57.291z"/>
	<path fill="#FFFFFF" d="M89.705,3.942H10.295c-4.384,0.005-7.936,3.557-7.941,7.941v61.941c0.005,4.384,3.557,7.936,7.941,7.941
		h29.672c-0.949,2.707-2.754,5.031-5.142,6.62c-0.442,0.295-0.707,0.791-0.707,1.321v4.765c0,0.877,0.711,1.588,1.588,1.588h28.588
		c0.877,0,1.588-0.711,1.588-1.588v-4.765c0-0.531-0.265-1.027-0.707-1.321c-2.388-1.589-4.193-3.913-5.141-6.62h29.672
		c4.384-0.005,7.936-3.557,7.941-7.941V11.883C97.641,7.499,94.089,3.947,89.705,3.942z M62.706,90.528v2.354H37.294v-2.354
		c2.919-2.173,5.03-5.257,5.999-8.764h13.413C57.676,85.272,59.787,88.356,62.706,90.528z M94.47,73.823
		c-0.003,2.63-2.134,4.762-4.765,4.765H10.295c-2.63-0.003-4.762-2.134-4.765-4.765v-1.588h88.94V73.823z M94.47,69.059H5.53V11.883
		c0.003-2.63,2.134-4.762,4.765-4.765h79.411c2.63,0.003,4.762,2.134,4.765,4.765V69.059z"/>
</g>
</svg>
