<?xml version="1.0" encoding="utf-8"?>
<!-- Generator: Adobe Illustrator 17.0.0, SVG Export Plug-In . SVG Version: 6.00 Build 0)  -->
<!DOCTYPE svg PUBLIC "-//W3C//DTD SVG 1.1//EN" "http://www.w3.org/Graphics/SVG/1.1/DTD/svg11.dtd">
<svg version="1.1" id="Layer_1" xmlns="http://www.w3.org/2000/svg" xmlns:xlink="http://www.w3.org/1999/xlink" x="0px" y="0px"
	 width="100px" height="100px" viewBox="0 0 100 100" enable-background="new 0 0 100 100" xml:space="preserve">
<g id="surface1">
	<path fill="#FFFFFF" d="M92.494,17.643H73.166c-0.764,0-1.382,0.618-1.382,1.382c0,0.764,0.618,1.382,1.382,1.382h19.328
		c0.823,0,1.491,0.669,1.491,1.491V75.11c0,0.823-0.669,1.491-1.491,1.491H6.671c-0.823,0-1.491-0.669-1.491-1.491V21.898
		c0-0.823,0.669-1.491,1.491-1.491h30.36v2.764H9.325c-0.764,0-1.382,0.618-1.382,1.382v36.511c0,0.763,0.618,1.382,1.382,1.382
		s1.382-0.619,1.382-1.382v-35.13h26.324v7.413l-5.916,2.826c-0.472,0.226-0.786,0.714-0.786,1.247v22.535
		c0,0.533,0.306,1.018,0.786,1.247l17.872,8.539c0.387,0.182,0.824,0.173,1.192,0l10.047-4.8c0.689-0.329,0.98-1.154,0.651-1.842
		c-0.329-0.689-1.155-0.98-1.843-0.651l-8.069,3.855V46.83l15.108-7.218v19.473l-2.053,0.98c-0.689,0.329-0.98,1.154-0.651,1.842
		c0.329,0.689,1.154,0.98,1.842,0.651l2.839-1.356c0.48-0.23,0.786-0.715,0.786-1.247V37.421c0-0.527-0.307-1.018-0.786-1.247
		l-5.916-2.826v-7.413h26.324v45.14H10.707V66.96c0-0.764-0.618-1.382-1.382-1.382s-1.382,0.618-1.382,1.382v5.496
		c0,0.764,0.618,1.382,1.382,1.382H89.84c0.764,0,1.382-0.618,1.382-1.382V24.552c0-0.764-0.618-1.382-1.382-1.382H62.134v-2.764
		h5.136c0.764,0,1.382-0.618,1.382-1.382c0-0.764-0.618-1.382-1.382-1.382h-5.136V14.88h12.39c0.764,0,1.382-0.618,1.382-1.382
		V10.22c1.609-0.571,2.764-2.107,2.764-3.908c0-2.286-1.86-4.146-4.146-4.146c-2.286,0-4.146,1.86-4.146,4.146
		c0,1.801,1.155,3.337,2.764,3.908v1.896h-12.39c-0.764,0-1.382,0.618-1.382,1.382v4.146h-8.406V10.22
		c1.609-0.571,2.764-2.107,2.764-3.908c0-2.286-1.86-4.146-4.146-4.146s-4.146,1.86-4.146,4.146c0,1.801,1.155,3.337,2.764,3.908
		v7.423h-8.406v-4.146c0-0.764-0.618-1.382-1.382-1.382h-12.39V10.22c1.609-0.571,2.764-2.107,2.764-3.908
		c0-2.286-1.86-4.146-4.146-4.146s-4.146,1.86-4.146,4.146c0,1.801,1.155,3.337,2.764,3.908v3.278c0,0.764,0.618,1.382,1.382,1.382
		h12.39v2.764H6.671c-2.346,0-4.255,1.909-4.255,4.255V75.11c0,2.346,1.909,4.255,4.255,4.255h29.958
		c-0.535,5.069-3.886,8.029-4.943,8.844h-5.871c-2.286,0-4.146,1.86-4.146,4.146s1.86,4.146,4.146,4.146H73.35
		c2.286,0,4.146-1.86,4.146-4.146s-1.86-4.146-4.146-4.146h-5.868c-1.043-0.812-4.406-3.799-4.945-8.844h29.957
		c2.346,0,4.255-1.909,4.255-4.255V21.898C96.749,19.552,94.841,17.643,92.494,17.643z M74.525,4.93c0.762,0,1.382,0.62,1.382,1.382
		s-0.62,1.382-1.382,1.382s-1.382-0.62-1.382-1.382S73.762,4.93,74.525,4.93z M49.583,4.93c0.762,0,1.382,0.62,1.382,1.382
		s-0.62,1.382-1.382,1.382s-1.382-0.62-1.382-1.382S48.82,4.93,49.583,4.93z M24.64,4.93c0.762,0,1.382,0.62,1.382,1.382
		s-0.62,1.382-1.382,1.382s-1.382-0.62-1.382-1.382S23.878,4.93,24.64,4.93z M39.794,25.934h8.406v2.076l-8.406,4.017V25.934z
		 M64.249,37.421l-14.666,7.006l-14.666-7.006l14.666-7.007L64.249,37.421z M33.093,39.612l15.108,7.218v19.473l-15.108-7.218
		V39.612z M59.371,32.027l-8.406-4.017v-2.076h8.406V32.027z M59.371,20.407v2.764h-8.406v-2.764H59.371z M48.201,20.407v2.764
		h-8.406v-2.764H48.201z M74.732,92.354c0,0.762-0.62,1.382-1.382,1.382H25.815c-0.762,0-1.382-0.62-1.382-1.382
		s0.62-1.382,1.382-1.382H73.35C74.112,90.973,74.732,91.592,74.732,92.354z M63.519,88.209H35.646
		c1.62-1.892,3.417-4.841,3.762-8.844h20.349C60.102,83.368,61.899,86.317,63.519,88.209z"/>
</g>
</svg>
