<?xml version="1.0" encoding="utf-8"?>
<!-- Generator: Adobe Illustrator 17.0.0, SVG Export Plug-In . SVG Version: 6.00 Build 0)  -->
<!DOCTYPE svg PUBLIC "-//W3C//DTD SVG 1.1//EN" "http://www.w3.org/Graphics/SVG/1.1/DTD/svg11.dtd">
<svg version="1.1" id="Layer_1" xmlns="http://www.w3.org/2000/svg" xmlns:xlink="http://www.w3.org/1999/xlink" x="0px" y="0px"
	 width="100px" height="100px" viewBox="0 0 100 100" style="enable-background:new 0 0 100 100;" xml:space="preserve">
<path style="fill:#FDFDFE;" d="M64.695,29.697H35.305v5.607h-2.9v5.801h2.9V47.1h-2.9V52.9h2.9v5.994h-2.9v5.801h2.9v5.607h29.391
	v-5.607h2.9v-5.801h-2.9V52.9h2.9V47.1h-2.9v-5.994h2.9v-5.801h-2.9V29.697z M58.895,52.9H41.105V47.1h17.789V52.9z M58.895,64.502
	H41.105v-5.801h17.789V64.502z M41.105,41.299v-5.801h17.789v5.801H41.105z"/>
<path style="fill:#FDFDFE;" d="M97.854,61.1c-0.968-3.686-2.341-7.413-4.076-11.123c5.989-12.826,7.462-25.46,3.431-34.904
	c1.414-1.548,2.277-3.605,2.277-5.861c0-4.797-3.902-8.699-8.699-8.699c-2.256,0-4.314,0.863-5.862,2.277
	C75.483-1.24,62.849,0.233,50.023,6.222C46.313,4.487,42.585,3.114,38.9,2.145C25.828-1.289,14.756,0.692,7.725,7.724
	c-7.033,7.033-9.014,18.104-5.579,31.175c0.968,3.687,2.341,7.414,4.076,11.123C0.233,62.849-1.24,75.482,2.791,84.926
	c-1.414,1.548-2.277,3.606-2.277,5.862c0,4.796,3.902,8.699,8.699,8.699c2.257,0,4.315-0.864,5.863-2.279
	c3.58,1.529,7.617,2.268,11.952,2.268c7.098,0,14.987-1.979,22.95-5.697c3.709,1.734,7.438,3.107,11.123,4.076
	c4.19,1.101,8.175,1.646,11.887,1.646c7.867,0,14.511-2.446,19.288-7.225C99.308,85.244,101.289,74.172,97.854,61.1z M90.788,6.313
	c1.599,0,2.9,1.301,2.9,2.9c0,1.598-1.301,2.899-2.9,2.899s-2.9-1.301-2.9-2.899C87.888,7.614,89.189,6.313,90.788,6.313z
	 M59.141,8.782c8.898-2.982,16.967-3.26,23.043-0.847c-0.062,0.418-0.095,0.844-0.095,1.278c0,4.796,3.903,8.699,8.699,8.699
	c0.434,0,0.86-0.033,1.278-0.094c2.412,6.076,2.134,14.144-0.847,23.043c-0.281,0.84-0.588,1.682-0.914,2.527
	c-3.884-6.606-8.879-13.032-14.769-18.922C69.646,18.575,63.219,13.58,56.614,9.696C57.458,9.37,58.301,9.063,59.141,8.782z
	 M87.326,49.983c-3.863,7.484-9.314,14.874-15.891,21.452c-6.578,6.577-13.969,12.028-21.452,15.891
	c-7.442-3.835-14.776-9.25-21.418-15.891C21.924,64.793,16.51,57.46,12.674,50.017c3.863-7.484,9.313-14.874,15.891-21.452
	c6.578-6.577,13.968-12.028,21.452-15.891c7.442,3.835,14.776,9.25,21.418,15.891S83.49,42.54,87.326,49.983z M7.754,37.426
	c-2.889-10.995-1.443-20.087,4.071-25.6C15.482,8.167,20.713,6.3,27.03,6.3c3.206,0,6.694,0.482,10.395,1.454
	c1.985,0.522,3.985,1.175,5.99,1.947c-6.534,3.833-12.985,8.796-18.951,14.763S13.534,36.882,9.701,43.416
	C8.929,41.411,8.276,39.411,7.754,37.426z M9.212,93.687c-1.599,0-2.9-1.301-2.9-2.9s1.301-2.9,2.9-2.9s2.9,1.301,2.9,2.9
	S10.811,93.687,9.212,93.687z M40.859,91.218c-8.898,2.981-16.967,3.26-23.043,0.847c0.062-0.418,0.095-0.844,0.095-1.278
	c0-4.796-3.903-8.699-8.699-8.699c-0.434,0-0.861,0.033-1.278,0.095C5.522,76.107,5.8,68.039,8.781,59.141
	c0.282-0.841,0.588-1.683,0.915-2.527c3.884,6.606,8.879,13.032,14.769,18.922c5.889,5.889,12.315,10.885,18.921,14.769
	C42.542,90.631,41.699,90.937,40.859,91.218z M88.175,88.175c-5.514,5.514-14.605,6.96-25.6,4.071
	c-1.984-0.522-3.984-1.175-5.988-1.946c6.533-3.833,12.983-8.798,18.949-14.764c5.967-5.967,10.93-12.417,14.763-18.951
	c0.772,2.005,1.425,4.005,1.947,5.99C95.135,73.57,93.689,82.661,88.175,88.175z"/>
</svg>
