<?xml version="1.0" encoding="utf-8"?>
<!-- Generator: Adobe Illustrator 17.0.0, SVG Export Plug-In . SVG Version: 6.00 Build 0)  -->
<!DOCTYPE svg PUBLIC "-//W3C//DTD SVG 1.1//EN" "http://www.w3.org/Graphics/SVG/1.1/DTD/svg11.dtd">
<svg version="1.1" id="Layer_1" xmlns="http://www.w3.org/2000/svg" xmlns:xlink="http://www.w3.org/1999/xlink" x="0px" y="0px"
	 width="100px" height="100px" viewBox="0 0 100 100" enable-background="new 0 0 100 100" xml:space="preserve">
<g>
	<path fill="#FFFFFF" d="M42.754,31.661c-1.045,0.416-1.565,1.591-1.171,2.644c0.393,1.054,1.557,1.599,2.618,1.229
		c3.678-1.381,7.732-1.381,11.411,0c1.062,0.371,2.225-0.175,2.619-1.229c0.394-1.053-0.127-2.228-1.171-2.644
		C52.447,29.933,47.365,29.933,42.754,31.661z"/>
	<path fill="#FFFFFF" d="M62.277,27.186c0.952-0.001,1.781-0.652,2.007-1.577c0.226-0.925-0.209-1.885-1.054-2.325
		c-8.351-4.326-18.284-4.326-26.634,0c-0.684,0.324-1.135,0.996-1.178,1.75c-0.043,0.755,0.328,1.473,0.969,1.873
		c0.642,0.4,1.45,0.419,2.109,0.048c7.16-3.708,15.674-3.708,22.833,0C61.621,27.106,61.946,27.186,62.277,27.186z"/>
	<path fill="#FFFFFF" d="M32.809,18.597c10.503-6.403,23.703-6.403,34.207,0c0.971,0.542,2.198,0.219,2.776-0.731
		c0.579-0.951,0.3-2.189-0.629-2.801c-11.823-7.205-26.678-7.205-38.5,0c-0.976,0.593-1.287,1.864-0.695,2.841
		c0.593,0.976,1.865,1.287,2.841,0.695V18.597z"/>
	<path fill="#FFFFFF" d="M13.678,90.335h66.811c0.418,0.002,0.837-0.021,1.253-0.069c9.821-0.426,17.617-8.418,17.8-18.246
		c-0.219-10.312-8.741-18.504-19.053-18.315c-0.574,0-1.146,0.024-1.708,0.076c-4.35-8.128-12.855-13.166-22.072-13.075
		c-7.515-0.029-14.648,3.31-19.439,9.098c-1.43-0.283-2.885-0.426-4.342-0.426c-9.512-0.126-17.941,6.103-20.613,15.232
		C5.357,65.168,0.108,71.165,0.477,78.136C0.846,85.107,6.699,90.516,13.678,90.335z M13.678,68.672
		c1.097,0.158,2.122-0.578,2.326-1.667c1.661-7.984,8.77-13.654,16.924-13.499c1.563,0,3.12,0.203,4.632,0.602
		c0.828,0.221,1.705-0.091,2.208-0.784c3.966-5.374,10.263-8.526,16.941-8.483c8.145-0.11,15.587,4.606,18.964,12.021
		c0.385,0.882,1.328,1.382,2.275,1.206c0.841-0.152,1.694-0.229,2.549-0.227c8.026-0.186,14.691,6.153,14.909,14.179
		c-0.193,7.679-6.341,13.874-14.019,14.128c-0.298,0.034-0.599,0.051-0.899,0.051H13.678c-3.242,0.173-6.315-1.459-7.988-4.242
		c-1.673-2.783-1.673-6.261,0-9.044C7.363,70.131,10.435,68.499,13.678,68.672z"/>
</g>
</svg>
