<?xml version="1.0" encoding="utf-8"?>
<!-- Generator: Adobe Illustrator 17.0.0, SVG Export Plug-In . SVG Version: 6.00 Build 0)  -->
<!DOCTYPE svg PUBLIC "-//W3C//DTD SVG 1.1//EN" "http://www.w3.org/Graphics/SVG/1.1/DTD/svg11.dtd">
<svg version="1.1" id="Layer_1" xmlns="http://www.w3.org/2000/svg" xmlns:xlink="http://www.w3.org/1999/xlink" x="0px" y="0px"
	 width="100px" height="100px" viewBox="0 0 100 100" enable-background="new 0 0 100 100" xml:space="preserve">
<g>
	<path fill="#FFFFFF" d="M19.961,98.307h34.973c5.551-0.006,10.049-4.504,10.055-10.055V76.449h2.406
		c0.676,0,1.241-0.513,1.306-1.186l0.437-4.532c1.894-0.503,3.708-1.266,5.392-2.269l3.479,2.881
		c0.521,0.432,1.285,0.396,1.764-0.083l5.199-5.199c0.478-0.479,0.514-1.243,0.083-1.764l-2.888-3.487
		c0.999-1.683,1.765-3.495,2.275-5.385l4.468-0.436c0.672-0.066,1.184-0.63,1.184-1.305v-7.37c0-0.676-0.513-1.241-1.186-1.305
		l-4.532-0.437c-0.503-1.894-1.266-3.708-2.269-5.392l2.881-3.479c0.43-0.519,0.396-1.279-0.077-1.758l-5.133-5.199
		c-0.478-0.484-1.247-0.523-1.771-0.089l-3.487,2.888c-1.683-0.999-3.494-1.764-5.384-2.275L68.7,24.737
		c-0.065-0.672-0.629-1.185-1.304-1.185h-2.406V11.748C64.983,6.197,60.485,1.699,54.935,1.693H19.961
		C14.411,1.699,9.913,6.197,9.906,11.748v76.504C9.913,93.803,14.411,98.301,19.961,98.307z M66.617,30.45
		c0.055,0.568,0.471,1.036,1.028,1.156c2.235,0.497,4.362,1.395,6.278,2.65c0.481,0.31,1.107,0.273,1.548-0.092l3.286-2.722
		l3.455,3.499l-2.731,3.299c-0.369,0.446-0.402,1.082-0.081,1.564c1.261,1.905,2.156,4.029,2.639,6.262
		c0.121,0.557,0.588,0.973,1.156,1.027l4.276,0.412v4.989l-4.212,0.413c-0.567,0.055-1.034,0.47-1.155,1.027
		c-0.497,2.235-1.395,4.362-2.65,6.278c-0.31,0.481-0.273,1.107,0.092,1.547l2.726,3.292l-3.51,3.51l-3.292-2.726
		c-0.446-0.369-1.082-0.402-1.564-0.081c-1.905,1.261-4.029,2.155-6.262,2.639c-0.557,0.121-0.973,0.588-1.027,1.156l-0.413,4.276
		h-4.988l-0.412-4.276c-0.055-0.568-0.47-1.035-1.027-1.156c-2.235-0.497-4.362-1.395-6.278-2.65
		c-0.481-0.31-1.107-0.273-1.548,0.092l-3.292,2.726l-3.511-3.51l2.726-3.292c0.369-0.446,0.402-1.082,0.081-1.564
		c-1.261-1.905-2.156-4.029-2.639-6.262c-0.121-0.557-0.588-0.973-1.156-1.027l-4.276-0.412v-4.989l4.276-0.412
		c0.568-0.055,1.035-0.47,1.156-1.027c0.497-2.236,1.395-4.363,2.65-6.279c0.31-0.481,0.273-1.107-0.092-1.547l-2.726-3.292
		l3.51-3.51l3.292,2.726c0.446,0.369,1.082,0.402,1.564,0.081c1.905-1.261,4.029-2.155,6.262-2.639
		c0.557-0.121,0.973-0.588,1.027-1.156l0.413-4.276h4.988L66.617,30.45z M19.961,4.316h34.973c4.103,0.005,7.427,3.329,7.432,7.432
		v3.06h-3.06c-0.724,0-1.312,0.587-1.312,1.312c0,0.724,0.587,1.312,1.312,1.312h3.06v6.12h-2.341c-0.676,0-1.241,0.513-1.305,1.186
		l-0.437,4.532c-1.894,0.503-3.708,1.266-5.392,2.269l-3.479-2.881c-0.521-0.432-1.285-0.396-1.764,0.083l-5.199,5.199
		c-0.478,0.479-0.514,1.243-0.083,1.764l2.888,3.487c-0.999,1.683-1.764,3.494-2.275,5.384l-4.532,0.437
		c-0.672,0.065-1.186,0.63-1.186,1.305v7.37c0,0.676,0.513,1.241,1.186,1.306l4.532,0.437c0.503,1.894,1.267,3.708,2.269,5.392
		l-2.881,3.479c-0.432,0.521-0.396,1.285,0.083,1.764l5.199,5.199c0.479,0.479,1.243,0.515,1.764,0.083l3.487-2.888
		c1.683,0.999,3.495,1.764,5.385,2.274l0.437,4.533c0.065,0.672,0.629,1.185,1.304,1.186h2.341v3.497H12.529V17.431h35.629
		c0.724,0,1.312-0.587,1.312-1.312c0-0.724-0.587-1.312-1.312-1.312l0,0H12.529v-3.06C12.534,7.645,15.859,4.321,19.961,4.316z
		 M12.529,82.569h49.837v5.683c-0.005,4.103-3.329,7.427-7.432,7.432H19.961c-4.103-0.005-7.427-3.329-7.432-7.432L12.529,82.569z"
		/>
	<path fill="#FFFFFF" d="M48.05,50c0,8.649,7.012,15.661,15.661,15.661S79.372,58.649,79.372,50S72.36,34.339,63.711,34.339l0,0
		C55.066,34.349,48.06,41.355,48.05,50z M63.711,36.962c7.201,0,13.038,5.837,13.038,13.038c0,7.2-5.837,13.038-13.038,13.038
		c-7.2,0-13.038-5.837-13.038-13.038C50.681,42.803,56.514,36.97,63.711,36.962z"/>
	<path fill="#FFFFFF" d="M61.06,54.671c0.51,0.497,1.323,0.497,1.832,0l7.647-7.466c0.522-0.503,0.537-1.333,0.034-1.854
		c-0.503-0.522-1.333-0.537-1.854-0.034c-0.004,0.004-0.008,0.008-0.012,0.012L61.976,51.9l-3.328-3.249
		c-0.521-0.503-1.352-0.487-1.854,0.034c-0.498,0.517-0.488,1.338,0.022,1.843L61.06,54.671z"/>
</g>
</svg>
