<?xml version="1.0" encoding="utf-8"?>
<!-- Generator: Adobe Illustrator 17.0.0, SVG Export Plug-In . SVG Version: 6.00 Build 0)  -->
<!DOCTYPE svg PUBLIC "-//W3C//DTD SVG 1.1//EN" "http://www.w3.org/Graphics/SVG/1.1/DTD/svg11.dtd">
<svg version="1.1" id="Layer_2" xmlns="http://www.w3.org/2000/svg" xmlns:xlink="http://www.w3.org/1999/xlink" x="0px" y="0px"
	 width="100px" height="100px" viewBox="206 206 100 100" style="enable-background:new 206 206 100 100;" xml:space="preserve">
<g>
	<path style="fill:#FFFFFF;" d="M299.382,273.52c-0.795,0-1.43-0.636-1.43-1.43v-16.209c0-3.575-2.94-6.515-6.515-6.515h-6.197
		c-0.795,0-1.43-0.636-1.43-1.43c0-0.795,0.636-1.43,1.43-1.43h6.197c5.085,0,9.296,4.132,9.296,9.296v16.288
		C300.733,272.884,300.097,273.52,299.382,273.52z"/>
	<path style="fill:#FFFFFF;" d="M212.459,273.52c-0.795,0-1.43-0.636-1.43-1.43v-16.209c0-5.085,4.132-9.296,9.296-9.296h2.86
		c0.795,0,1.43,0.636,1.43,1.43c0,0.795-0.636,1.43-1.43,1.43h-2.86c-3.575,0-6.515,2.94-6.515,6.515v16.288
		C213.889,272.884,213.254,273.52,212.459,273.52L212.459,273.52z"/>
	<path style="fill:#FCFCFC;" d="M247.419,217.425c-0.795,0-1.43-0.636-1.43-1.43v-4.37c0-0.795,0.636-1.43,1.43-1.43
		c0.795,0,1.43,0.636,1.43,1.43v4.449C248.849,216.789,248.213,217.425,247.419,217.425z"/>
	<path style="fill:#FFFFFF;" d="M245.989,206.54h2.86c1.43,0,2.543,1.112,2.543,2.543s-1.112,2.543-2.543,2.543h-2.86
		c-1.43,0-2.543-1.112-2.543-2.543S244.638,206.54,245.989,206.54z"/>
	<path style="fill:#FFFFFF;" d="M224.218,287.504h63.325c4.926,0,8.978,4.052,8.978,8.978c0,4.926-4.052,8.978-8.978,8.978h-63.325
		c-4.926,0-8.978-4.052-8.978-8.978C215.24,291.476,219.292,287.504,224.218,287.504z"/>
	<path style="fill:#FFFFFF;" d="M301.051,290.682c-0.795,0-1.43-0.636-1.43-1.43c0-0.795,0.636-1.43,1.43-1.43
		c0.874,0,1.589-0.715,1.589-1.589v-8.184c0-0.795,0.636-1.43,1.43-1.43c0.795,0,1.43,0.636,1.43,1.43v8.263
		C305.341,288.695,303.434,290.682,301.051,290.682L301.051,290.682z"/>
	<path style="fill:#FFFFFF;" d="M297.078,286.073c-0.397,0-0.715-0.159-0.953-0.397c-1.351-1.351-2.066-3.099-2.066-5.006v-2.701
		c0-0.795,0.636-1.43,1.43-1.43c0.795,0,1.43,0.636,1.43,1.43v2.701c0,1.112,0.477,2.225,1.271,3.019
		c0.556,0.556,0.556,1.43,0,1.986C297.793,285.915,297.475,286.073,297.078,286.073L297.078,286.073z"/>
	<path style="fill:#FFFFFF;" d="M210.87,290.682c-2.384,0-4.37-1.986-4.37-4.37v-8.263c0-0.795,0.636-1.43,1.43-1.43
		s1.43,0.636,1.43,1.43v8.263c0,0.874,0.715,1.589,1.589,1.589c0.795,0,1.43,0.636,1.43,1.43S211.585,290.682,210.87,290.682z"/>
	<path style="fill:#FFFFFF;" d="M214.763,286.073c-0.795,0-1.351-0.636-1.351-1.351c0-0.397,0.159-0.715,0.397-0.953
		c0.795-0.795,1.271-1.907,1.271-3.019v-2.701c0-0.795,0.636-1.43,1.43-1.43s1.43,0.636,1.43,1.43v2.701
		c0,1.907-0.715,3.655-2.066,5.006C215.478,285.915,215.161,286.073,214.763,286.073L214.763,286.073z"/>
	<path style="fill:#FFFFFF;" d="M285.239,271.692l-6.992,4.767h-44.653l-6.992-4.767v-15.891h8.561l0.05,12.524l41.416,0.05
		l0-12.574h8.611V271.692z"/>
	<path style="fill:#FFFFFF;" d="M233.594,276.459h44.733v10.965h-44.733V276.459z"/>
	<path style="fill:#FFFFFF;" d="M291.516,255.801h-71.112v-7.866l7.945-7.787h55.141l8.025,7.787V255.801z"/>
	<g>
		<path style="fill:#FDFEFF;" d="M241.063,255.801v6.277c0,0.795,0.636,1.43,1.43,1.43c0.795,0,1.43-0.636,1.43-1.43v-6.277H241.063
			z"/>
		<path style="fill:#FDFEFF;" d="M247.816,255.801v6.277c0,0.795,0.636,1.43,1.43,1.43s1.43-0.636,1.43-1.43v-6.277H247.816z"/>
		<path style="fill:#FDFEFF;" d="M254.57,255.801v6.277c0,0.795,0.636,1.43,1.43,1.43c0.795,0,1.43-0.636,1.43-1.43v-6.277H254.57z"
			/>
		<path style="fill:#FDFEFF;" d="M261.323,255.801v6.277c0,0.795,0.636,1.43,1.43,1.43c0.795,0,1.43-0.636,1.43-1.43v-6.277H261.323
			z"/>
		<path style="fill:#FDFEFF;" d="M268.077,255.801v6.277c0,0.795,0.636,1.43,1.43,1.43c0.795,0,1.43-0.636,1.43-1.43v-6.277H268.077
			z"/>
	</g>
	<path style="fill:#FFFFFF;" d="M268.713,240.149h-25.584l-7.945-6.754h41.475L268.713,240.149z"/>
	<path style="fill:#FFFFFF;" d="M276.658,233.395h-41.475v-8.661l7.945-8.661h25.584l7.945,8.661V233.395z"/>
	<path style="fill:#FFFFFF;" d="M305.421,278.049h-12.077v-1.827c0-2.225,1.827-4.052,4.052-4.052h3.973
		c2.225,0,4.052,1.827,4.052,4.052V278.049z"/>
	<path style="fill:#FFFFFF;" d="M206.5,278.049h12.077v-1.827c0-2.225-1.827-4.052-4.052-4.052h-3.973
		c-2.225,0-4.052,1.827-4.052,4.052V278.049z"/>
</g>
</svg>
