<?xml version="1.0" encoding="utf-8"?>
<!-- Generator: Adobe Illustrator 17.0.0, SVG Export Plug-In . SVG Version: 6.00 Build 0)  -->
<!DOCTYPE svg PUBLIC "-//W3C//DTD SVG 1.1//EN" "http://www.w3.org/Graphics/SVG/1.1/DTD/svg11.dtd">
<svg version="1.1" id="Layer_1" xmlns="http://www.w3.org/2000/svg" xmlns:xlink="http://www.w3.org/1999/xlink" x="0px" y="0px"
	 width="100px" height="100px" viewBox="0 0 100 100" enable-background="new 0 0 100 100" xml:space="preserve">
<g>
	<path fill="#666666" d="M96.68,91.055L73.672,68.047c5.703-6.953,9.141-15.859,9.141-25.566c0-22.266-18.066-40.332-40.332-40.332
		c-22.285,0-40.332,18.066-40.332,40.332S20.195,82.813,42.48,82.813c9.707,0,18.594-3.418,25.547-9.121L91.035,96.68
		c1.563,1.563,4.082,1.563,5.645,0C98.242,95.137,98.242,92.598,96.68,91.055z M42.48,74.785c-17.832,0-32.324-14.492-32.324-32.305
		S24.648,10.156,42.48,10.156c17.813,0,32.324,14.512,32.324,32.324S60.293,74.785,42.48,74.785z"/>
</g>
</svg>
