<?xml version="1.0" encoding="utf-8"?>
<!-- Generator: Adobe Illustrator 17.0.0, SVG Export Plug-In . SVG Version: 6.00 Build 0)  -->
<!DOCTYPE svg PUBLIC "-//W3C//DTD SVG 1.1//EN" "http://www.w3.org/Graphics/SVG/1.1/DTD/svg11.dtd">
<svg version="1.1" id="Layer_1" xmlns="http://www.w3.org/2000/svg" xmlns:xlink="http://www.w3.org/1999/xlink" x="0px" y="0px"
	 width="100px" height="100px" viewBox="0 0 100 100" enable-background="new 0 0 100 100" xml:space="preserve">
<g>
	<g>
		<g>
			<path fill="#FFFFFF" d="M98.535,48.535H74.949v-3.333h6.363c0.809,0,1.465-0.656,1.465-1.465c0-0.809-0.656-1.465-1.465-1.465
				h-6.363V38.94h4.418c1.646,0,3.193-0.641,4.357-1.805l9.634-9.634c0.628,0.313,1.324,0.479,2.046,0.479
				c1.228,0,2.382-0.478,3.25-1.346c0.868-0.868,1.346-2.022,1.346-3.25c0-1.228-0.478-2.382-1.346-3.25
				c-0.868-0.868-2.022-1.346-3.25-1.346c-1.228,0-2.382,0.478-3.25,1.346c-0.868,0.868-1.346,2.022-1.346,3.25
				c0,0.722,0.166,1.418,0.479,2.045l-9.634,9.634c-0.61,0.61-1.422,0.947-2.286,0.947h-4.418v-3.232
				c0-4.261-3.467-7.727-7.727-7.727H63.99V12.083c1.818-0.613,3.131-2.333,3.131-4.355c0-2.534-2.062-4.596-4.596-4.596
				s-4.596,2.062-4.596,4.596c0,2.022,1.313,3.742,3.131,4.355V25.05h-3.333v-6.363c0-0.809-0.656-1.465-1.465-1.465
				c-0.809,0-1.465,0.656-1.465,1.465v6.363h-3.333V1.465C51.465,0.656,50.809,0,50,0s-1.465,0.656-1.465,1.465V25.05h-3.333v-6.363
				c0-0.809-0.656-1.465-1.465-1.465c-0.809,0-1.465,0.656-1.465,1.465v6.363H38.94v-4.418c0-1.646-0.641-3.193-1.805-4.357
				l-9.637-9.637c0.851-1.719,0.566-3.862-0.863-5.292c-1.792-1.792-4.708-1.792-6.5,0c-1.792,1.792-1.792,4.708,0,6.5
				c0.896,0.896,2.073,1.344,3.25,1.344c0.701,0,1.4-0.163,2.042-0.48l9.637,9.637c0.611,0.61,0.947,1.422,0.947,2.285v4.418h-3.232
				c-0.653,0-1.303,0.082-1.931,0.244c-0.783,0.202-1.255,1-1.054,1.784c0.202,0.784,1,1.255,1.784,1.054
				c0.39-0.1,0.794-0.151,1.201-0.151h34.444c2.646,0,4.798,2.152,4.798,4.798v34.444c0,0.407-0.051,0.811-0.151,1.2
				c-0.201,0.784,0.271,1.582,1.054,1.783c0.122,0.031,0.245,0.046,0.366,0.046c0.653,0,1.248-0.439,1.418-1.101
				c0.161-0.627,0.243-1.277,0.243-1.929V63.99h12.968c0.613,1.818,2.333,3.131,4.355,3.131c2.534,0,4.596-2.062,4.596-4.596
				c0-2.534-2.062-4.596-4.596-4.596c-2.022,0-3.742,1.313-4.355,3.131H74.949v-3.333h6.363c0.809,0,1.465-0.656,1.465-1.465
				c0-0.809-0.656-1.465-1.465-1.465h-6.363v-3.333h23.586c0.809,0,1.465-0.656,1.465-1.465C100,49.191,99.344,48.535,98.535,48.535
				z M94.225,22.206c0.315-0.315,0.733-0.488,1.178-0.488s0.863,0.173,1.178,0.488c0.315,0.315,0.488,0.733,0.488,1.178
				c0,0.445-0.173,0.863-0.488,1.178s-0.733,0.488-1.178,0.488s-0.863-0.173-1.178-0.488c-0.315-0.315-0.488-0.733-0.488-1.178
				C93.737,22.939,93.91,22.52,94.225,22.206z M24.562,5.775c-0.65,0.649-1.707,0.65-2.357,0c-0.65-0.65-0.65-1.707,0-2.357
				c0.325-0.325,0.752-0.487,1.179-0.487c0.427,0,0.854,0.162,1.178,0.487C25.212,4.068,25.212,5.125,24.562,5.775z M62.525,9.394
				c-0.919,0-1.666-0.748-1.666-1.666s0.747-1.666,1.666-1.666c0.919,0,1.666,0.748,1.666,1.666S63.444,9.394,62.525,9.394z
				 M92.272,60.859c0.919,0,1.666,0.748,1.666,1.666c0,0.919-0.748,1.666-1.666,1.666s-1.666-0.748-1.666-1.666
				C90.606,61.606,91.353,60.859,92.272,60.859z"/>
		</g>
	</g>
	<g>
		<g>
			<path fill="#FFFFFF" d="M79.866,92.154c-1.429-1.43-3.573-1.715-5.292-0.864l-9.637-9.637c-0.611-0.61-0.947-1.422-0.947-2.285
				V74.95h3.232c0.653,0,1.303-0.082,1.931-0.244c0.783-0.202,1.255-1,1.054-1.784c-0.202-0.783-1-1.255-1.784-1.054
				c-0.389,0.1-0.793,0.151-1.201,0.151H32.778c-2.645,0-4.798-2.152-4.798-4.798V32.778c0-0.407,0.051-0.811,0.151-1.2
				c0.202-0.783-0.27-1.582-1.053-1.784c-0.784-0.202-1.582,0.27-1.784,1.053c-0.162,0.628-0.244,1.277-0.244,1.931v3.232H12.083
				c-0.613-1.818-2.333-3.131-4.355-3.131c-2.534,0-4.596,2.062-4.596,4.596c0,2.534,2.062,4.596,4.596,4.596
				c2.022,0,3.742-1.313,4.355-3.131H25.05v3.333h-6.363c-0.809,0-1.465,0.656-1.465,1.465c0,0.809,0.656,1.465,1.465,1.465h6.363
				v3.333H1.465C0.656,48.535,0,49.191,0,50s0.656,1.465,1.465,1.465H25.05v3.333h-6.363c-0.809,0-1.465,0.656-1.465,1.465
				c0,0.809,0.656,1.465,1.465,1.465h6.363v3.333h-4.418c-1.646,0-3.193,0.641-4.357,1.805l-9.634,9.634
				c-0.628-0.313-1.324-0.479-2.045-0.479c-1.228,0-2.382,0.478-3.25,1.346C0.478,74.234,0,75.388,0,76.616s0.478,2.382,1.346,3.25
				c0.868,0.868,2.022,1.346,3.25,1.346s2.382-0.478,3.25-1.346c0.868-0.868,1.346-2.022,1.346-3.25
				c0-0.722-0.166-1.418-0.479-2.045l9.634-9.634c0.61-0.61,1.422-0.947,2.286-0.947h4.418v3.232c0,4.261,3.467,7.727,7.727,7.727
				h3.232v12.968c-1.818,0.613-3.131,2.333-3.131,4.355c0,2.534,2.062,4.596,4.596,4.596s4.596-2.062,4.596-4.596
				c0-2.022-1.313-3.742-3.131-4.355V74.949h3.333v6.363c0,0.809,0.656,1.465,1.465,1.465c0.809,0,1.465-0.656,1.465-1.465v-6.363
				h3.333v23.586c0,0.809,0.656,1.465,1.465,1.465s1.465-0.656,1.465-1.465V74.95h3.333v6.363c0,0.809,0.656,1.465,1.465,1.465
				c0.809,0,1.465-0.656,1.465-1.465V74.95h3.333v4.418c0,1.646,0.641,3.193,1.805,4.357l9.637,9.637
				c-0.851,1.719-0.566,3.862,0.864,5.292c0.896,0.896,2.073,1.344,3.25,1.344s2.354-0.448,3.25-1.344
				C81.658,96.862,81.658,93.946,79.866,92.154z M7.727,39.141c-0.919,0-1.666-0.748-1.666-1.666c0-0.919,0.748-1.666,1.666-1.666
				s1.666,0.748,1.666,1.666C9.394,38.394,8.646,39.141,7.727,39.141z M5.774,77.794c-0.315,0.315-0.733,0.488-1.178,0.488
				c-0.445,0-0.863-0.173-1.178-0.488S2.93,77.061,2.93,76.616s0.173-0.863,0.488-1.178s0.733-0.488,1.178-0.488
				c0.445,0,0.863,0.173,1.178,0.488s0.488,0.733,0.488,1.178S6.089,77.48,5.774,77.794z M39.141,92.272
				c0,0.919-0.747,1.666-1.666,1.666s-1.666-0.748-1.666-1.666c0-0.919,0.748-1.666,1.666-1.666
				C38.393,90.606,39.141,91.354,39.141,92.272z M77.794,96.582c-0.65,0.65-1.707,0.65-2.357,0c-0.65-0.65-0.65-1.707,0-2.357
				c0.325-0.325,0.752-0.487,1.179-0.487s0.854,0.162,1.178,0.487C78.444,94.875,78.444,95.932,77.794,96.582z"/>
		</g>
	</g>
	<g>
		<g>
			<path fill="#FFFFFF" d="M65.555,46.086c0-3.133-2.291-5.787-5.428-6.649c0.093-0.383,0.144-0.777,0.144-1.179
				c0-2.966-2.633-5.379-5.868-5.379c-1.753,0-3.327,0.709-4.403,1.829c-1.076-1.12-2.651-1.829-4.403-1.829
				c-3.236,0-5.868,2.413-5.868,5.379c0,0.403,0.052,0.796,0.144,1.179c-3.137,0.862-5.428,3.516-5.428,6.649
				c0,1.531,0.542,2.976,1.543,4.169c-0.979,1.267-1.543,2.805-1.543,4.443c0,2.491,1.33,4.816,3.522,6.259c0,0.001,0,0.002,0,0.004
				c0,3.398,3.028,6.162,6.749,6.162c2.139,0,4.047-0.914,5.284-2.335c1.237,1.421,3.145,2.335,5.284,2.335
				c3.581,0,6.519-2.561,6.735-5.782c2.175-1.262,3.537-3.473,3.537-5.86c0-1.756-0.749-3.431-2.037-4.697
				C64.807,49.517,65.555,47.842,65.555,46.086z M60.371,52.078c1.412,0.745,2.254,2.017,2.254,3.402c0,1.033-0.48,2.018-1.29,2.754
				c-0.77-1.426-2.131-2.561-3.851-3.101c-0.771-0.242-1.594,0.187-1.837,0.958c-0.243,0.772,0.187,1.594,0.958,1.837
				c1.493,0.469,2.497,1.688,2.497,3.032c0,1.782-1.713,3.232-3.819,3.232c-2.106,0-3.819-1.45-3.819-3.232v-9.394
				c0-1.782,1.713-3.232,3.819-3.232c0.809,0,1.465-0.656,1.465-1.465c0-0.809-0.656-1.465-1.465-1.465
				c-1.417,0-2.732,0.402-3.819,1.085v-1.871c0-0.809-0.656-1.465-1.465-1.465s-1.465,0.656-1.465,1.465v8.132
				c-0.493-0.309-1.034-0.565-1.618-0.749c-0.772-0.243-1.594,0.187-1.837,0.958c-0.243,0.772,0.187,1.594,0.958,1.837
				c1.493,0.469,2.497,1.688,2.497,3.032v3.131c0,1.782-1.713,3.232-3.819,3.232c-2.106,0-3.819-1.45-3.819-3.232
				c0-0.764,0.324-1.506,0.912-2.091c0.574-0.57,0.577-1.498,0.006-2.072c-0.57-0.574-1.498-0.577-2.071-0.006
				c-0.351,0.349-0.653,0.73-0.904,1.136c-0.925-0.875-1.465-2.026-1.465-3.229c0-2.17,1.703-4.077,4.142-4.637
				c0.788-0.181,1.281-0.967,1.1-1.755c-0.181-0.789-0.967-1.281-1.755-1.1c-0.982,0.225-1.886,0.601-2.687,1.095
				c-0.52-0.653-0.8-1.417-0.8-2.214c0.001-2.203,2.089-3.997,4.664-4.014c0.013,0,0.026,0.002,0.039,0.002
				c0.334,0,0.671-0.114,0.946-0.347c0.562-0.475,0.674-1.282,0.297-1.889c-0.011-0.018-0.021-0.036-0.033-0.054
				c-0.006-0.009-0.013-0.017-0.02-0.026c-0.023-0.032-0.046-0.063-0.071-0.093c-0.001-0.001-0.001-0.002-0.002-0.003
				c-0.244-0.289-0.536-0.767-0.536-1.405c0-1.351,1.318-2.449,2.938-2.449c1.62,0,2.938,1.099,2.938,2.449
				c0,0.809,0.656,1.465,1.465,1.465s1.465-0.656,1.465-1.465c0-1.351,1.318-2.449,2.938-2.449s2.938,1.099,2.938,2.449
				c0,0.361-0.095,0.669-0.22,0.922c-0.833,0.079-1.639,0.28-2.404,0.603c-0.746,0.314-1.095,1.173-0.781,1.919
				c0.314,0.745,1.173,1.095,1.919,0.781c0.633-0.267,1.314-0.404,2.025-0.41c0.014,0,0.028,0.002,0.042,0.002
				c0.013,0,0.026-0.002,0.039-0.002c2.575,0.017,4.663,1.811,4.663,4.014c0,1.385-0.843,2.656-2.254,3.402
				c-0.48,0.254-0.781,0.752-0.781,1.296C59.59,51.326,59.891,51.825,60.371,52.078z"/>
		</g>
	</g>
</g>
</svg>
